# xmcd
#
# Track frame offsets: 
#        150
#        12741
#        23673
#        35317
#        47655
#        60780
#        72115
#        87515
#        100631
#        111685
#        124623
#        137561
#        151174
#        162940
#        181072
#        197751
#        212292
#        228689
#        239377
#        251799
#        262393
#        273578
#        285653
#        301432
#        314839
#
# Disc length: 4327 seconds
#
# Revision: 0
# Processed by: cddbd v1.5.2PL0 Copyright (c) Steve Scherf et al.
# Submitted via: ExactAudioCopy v1.1
#
DISCID=6810e519
DTITLE=John Lee Hooker - Boogie Chillen' - 50 Original All-Time Classi
DTITLE=cs [CD2]
DYEAR=1950
DGENRE=Blues
TTITLE0=Boogie Chillen' No.2
TTITLE1=No Shoes
TTITLE2=Solid Sender
TTITLE3=Drug Store Woman
TTITLE4=I'm Going Upstairs
TTITLE5=Hard-Headed Woman
TTITLE6=Tupelo
TTITLE7=I Like To See You Walk
TTITLE8=Shake It Up And Go
TTITLE9=Lost A Good Girl
TTITLE10=Devil's Jump
TTITLE11=Take Me As I Am
TTITLE12=Boogie Chillen (1959 version)
TTITLE13=I'm Prison Bound
TTITLE14=Good Mornin', Lil' School Girl
TTITLE15=Baby, You Ain't No Good
TTITLE16=Five Long Years
TTITLE17=Let's Make It
TTITLE18=Crawlin' King Snake (1959 version)
TTITLE19=She's Mine (Keep Your Hands To Yourself)
TTITLE20=What Do You Say
TTITLE21=Baby, I'm Gonna Miss You
TTITLE22=Thelma
TTITLE23=I Lost My Job
TTITLE24=Run On
EXTD=
EXTT0=
EXTT1=
EXTT2=
EXTT3=
EXTT4=
EXTT5=
EXTT6=
EXTT7=
EXTT8=
EXTT9=
EXTT10=
EXTT11=
EXTT12=
EXTT13=
EXTT14=
EXTT15=
EXTT16=
EXTT17=
EXTT18=
EXTT19=
EXTT20=
EXTT21=
EXTT22=
EXTT23=
EXTT24=
PLAYORDER=
